<svg xmlns="http://www.w3.org/2000/svg" viewBox="0 0 500 500"><g id="freepik--background-simple--inject-2"><path d="M370,368a106.23,106.23,0,0,1-11,5.23c-32.37,13.16-75.13,11.75-103-10.83-16.58-13.45-22.09-36-33.69-53.93C207.75,286,182.92,271,161,256.48c-29.57-19.59-55.83-40.64-63.5-76.64-6.39-29.93,1.4-63.37,25.34-83.48,22.78-19.13,51.89-31.93,80.66-38.83,24.76-5.94,46.77-2.58,62.71,19,10.42,14.09,15.55,31.26,21.23,47.83,6.42,18.74,14.86,42.19,32.2,53.54,16.56,10.84,39,10.48,57,18.4,29.6,13.08,48.47,45.44,48.9,77.8C426.05,312.52,403.33,349.77,370,368Z" style="fill:#02AC13"></path><path d="M370,368a106.23,106.23,0,0,1-11,5.23c-32.37,13.16-75.13,11.75-103-10.83-16.58-13.45-22.09-36-33.69-53.93C207.75,286,182.92,271,161,256.48c-29.57-19.59-55.83-40.64-63.5-76.64-6.39-29.93,1.4-63.37,25.34-83.48,22.78-19.13,51.89-31.93,80.66-38.83,24.76-5.94,46.77-2.58,62.71,19,10.42,14.09,15.55,31.26,21.23,47.83,6.42,18.74,14.86,42.19,32.2,53.54,16.56,10.84,39,10.48,57,18.4,29.6,13.08,48.47,45.44,48.9,77.8C426.05,312.52,403.33,349.77,370,368Z" style="fill:#fff;opacity:0.9"></path></g><g id="freepik--Shadow--inject-2"><ellipse id="freepik--path--inject-2" cx="250" cy="416.24" rx="193.89" ry="11.32" style="fill:#f5f5f5"></ellipse></g><g id="freepik--data-world--inject-2"><path d="M424.25,200.55c-.23-3.55-.61-7.14-1.12-10.66l1.12-.16c.51,3.55.89,7.17,1.13,10.75Z" style="fill:#02AC13"></path><path d="M420.31,175.78a136.44,136.44,0,0,0-11.6-30l1-.53A137.69,137.69,0,0,1,421.4,175.5Z" style="fill:#02AC13"></path><circle cx="287.26" cy="209.74" r="134.47" transform="translate(-64.17 264.55) rotate(-45)" style="fill:#02AC13"></circle><g style="opacity:0.2"><path d="M298.29,342.38h-.13l-.93.07,1.73-.31c-1.79.12-4.18.25-6,.33l-1,.28-2.31.06a3.78,3.78,0,0,0,1-.87c2.32-.06,5.43-.19,7.75-.3l-.72.37,3.34-.25-2.75.61" style="fill:#fff;opacity:0.4"></path><path d="M275.54,341.6c-1.94-.15-4.53-.37-6.47-.56-4.61-2.45-4.79-2.55-8.6-6.57,2.87.27,6.7.61,9.57.82,2.73,4.2,2.84,4.36,5.5,6.31" style="fill:#fff"></path><path d="M263.68,338.86c-5.35-.68-6.17-.79-10.49-1.55-9.37-5.46-13.28-8.79-21.17-20.32,8.2,1.38,9.46,1.6,17.07,2.52,5.1,10.29,7.63,14.08,14.59,19.35" style="fill:#fff"></path><path d="M271.91,342c-1.22-.16-2.85-.36-4.07-.54l-1.84-.28-1.45-.27c1.61.23,3.75.53,5.36.73l2,.36" style="fill:#fff"></path><path d="M288.58,342.83h-2.35c-3.77-.07-3.85-.07-5.77-.17-3.93-.24-4-.25-6-.44l-1.21-.13a32.74,32.74,0,0,1-4.15-1c1.94.19,4.53.41,6.47.56,4.78.26,7.41.4,13.63.37-.15.28-.29.8-.59.86" style="fill:#fff;opacity:0.4"></path><path d="M279,341.11c0,.09.19.49-1.24.44-1.76-.12-3-.75-2.52-1.1.66-.5,3.4,0,3.76.66" style="fill:#fff"></path><path d="M284.93,341.28c0,.05-.09.48-1.62.47s-2.44-.56-2.07-.93c.65-.63,3.75-.25,3.69.46" style="fill:#fff;opacity:0.4"></path><path d="M290.94,341.26c0,.05-.4.49-2,.53-1.39,0-2-.4-1.65-.75.65-.72,3.76-.64,3.69.09a.5.5,0,0,1-.05.13" style="fill:#fff;opacity:0.4"></path><path d="M304.79,329.71c-3.52.15-8.21.34-11.73.42.63-5.74.74-6.78,1.25-13.49,4.25-.12,9.9-.31,14.14-.51a102.54,102.54,0,0,1-3.66,13.58" style="fill:#fff;opacity:0.4"></path><path d="M290.61,325.83c-3.78,0-8.83-.05-12.61-.13-.79-6.53-.93-7.71-1.55-15.08,4.44.08,10.37.15,14.81.15-.29,7.75-.34,9.15-.65,15.06" style="fill:#fff;opacity:0.4"></path><path d="M307.65,334.22c-3.12.19-7.28.43-10.4.56l.72-2.52c3.34-.15,7.79-.38,11.13-.6l-1.45,2.56" style="fill:#fff;opacity:0.4"></path><path d="M339.64,302.43c-3.75.48-8.75,1.11-12.51,1.51l1.51-6.57c3.9-.45,9.09-1.05,13-1.57l-2,6.63" style="fill:#fff;opacity:0.4"></path><path d="M291.28,310.28c-4.46,0-10.41-.06-14.87-.15-.63-9.17-.66-9.53-.94-15.3,4.87.08,11.35.16,16.22.16-.25,10.32-.25,10.32-.41,15.29" style="fill:#fff;opacity:0.4"></path><path d="M274.5,321.55c-8.95-.43-14.36-.69-25.23-1.89-3.3-8.15-4.67-11.52-7.5-24C252,296.76,258.19,297.39,272,298c.75,9.47,1.13,14.23,2.46,23.58" style="fill:#fff"></path><path d="M322.71,313.84c-9.6.81-15.4,1.3-28.15,1.58.53-8.41.8-12.63,1.27-25.89,11.53-.33,18.5-.53,32.76-1.83-1.74,10.32-2.61,15.5-5.88,26.14" style="fill:#fff;opacity:0.4"></path><path d="M237.64,291.56a281.94,281.94,0,0,1-29.53-5.19c-1.14-4-2.62-9.39-3.55-13.46a292.74,292.74,0,0,0,30.86,5.43c.61,4,1.46,9.27,2.22,13.22" style="fill:#fff;opacity:0.4"></path><path d="M217.52,274a243.56,243.56,0,0,1-24.33-5.72c-2.22-11.82-3.33-17.75-3.53-32.45a249,249,0,0,0,25.27,5.93c.29,11.1.5,19.11,2.59,32.24" style="fill:#fff;opacity:0.30000000000000004"></path><path d="M332.62,327.9c-7.09,1.12-9,1.42-17.92,2.35l1.35-2.39c8-.84,10.1-1.07,18.79-2.46l-2.22,2.5" style="fill:#fff"></path><path d="M325,334.56c-6.22,1-7.18,1.13-12.73,1.74l.2-.19-2.21.22,1.31-1.53c6.73-.72,8.54-.91,15.89-2.08L325,334.56" style="fill:#fff"></path><path d="M227.12,272.45c0,1.1-.64,2.89-3.27,2.6-3.84-.79-5.43-5.15-3.23-6.73s6.44,1,6.5,4.13" style="fill:#fff"></path><path d="M317.65,318.66a4.88,4.88,0,0,1-4,2.24c-2.68.12-3.4-1.48-2.21-2.87,1.75-2,6.08-2.24,6.35-.27a1.59,1.59,0,0,1-.17.9" style="fill:#fff"></path><path d="M226,260.55a2.87,2.87,0,0,1-3.52,2.81c-3.9-.81-5.28-5.45-2.92-7.15s6.55,1,6.44,4.34" style="fill:#fff"></path><path d="M365.36,316.07a92.13,92.13,0,0,1-12,4.44c2.47-2.63,5.73-6.17,8-9a103.85,103.85,0,0,0,12.1-4.35l1.35-.62c-2.76,2.92-6.06,7.32-9.43,9.5" style="fill:#fff;opacity:0.4"></path><path d="M397.25,284.65c-1.8,2.44-4.12,5.76-6,8.13l-3.66,4.38a26,26,0,0,1-5.5,4.56c2.64-3.36,6.13-7.88,8.55-11.41,4.52-3.25,4.61-3.31,7.21-6.52l-.59.86" style="fill:#fff;opacity:0.4"></path><path d="M418.18,233.75c-1.26,5.64-3.15,13.11-4.82,18.63,1.61-5.52,3.51-13,4.68-18.59l.44-1.7-.3,1.66" style="fill:#fff;opacity:0.4"></path><path d="M377.78,307.26c2.06-2.08,4.89-4.77,6.86-6.93l1.15-1.15c-2.39,2.44-5.52,5.74-8,8.08" style="fill:#fff;opacity:0.4"></path><polyline points="367.01 316.25 369.49 314.34 370.08 313.88 367.01 316.25" style="fill:#fff;opacity:0.4"></polyline><path d="M378.53,247.53c-.43,4.6-1,10.74-1.7,15.32-4.09,1-9.56,2.25-13.68,3.11,1.46-13.25,1.54-14,1.75-25.86,4.2-.9,9.8-2.15,14-3.18-.1,3.18-.1,7.43-.35,10.61" style="fill:#fff;opacity:0.4"></path><path d="M395.4,256.75a144.47,144.47,0,0,1-18.57,6.1c.59-4.59,1.33-10.71,1.7-15.32,10.5-3,10.7-3,18.93-6.21-.53,4.64-1.27,10.83-2.06,15.43" style="fill:#fff;opacity:0.4"></path><path d="M388.49,280.1c-3,1.12-6.92,2.57-9.91,3.56,3.91-11.73,4.15-12.43,6.24-23.1,3.19-1.09,7.44-2.58,10.58-3.81-2.95,12.75-3.13,13.51-6.91,23.35" style="fill:#fff;opacity:0.4"></path><path d="M410.16,230.08c-3.54,1.95-8.33,4.46-12,6.19-1.94-20.9-2-21.71-5.67-38.57,3.51-1.7,8.17-4,11.56-6,4.4,20.07,4.66,21.27,6.1,38.36" style="fill:#fff;opacity:0.4"></path><path d="M413.33,251.46c-2.59,3.56-5.53,7.6-17.81,13.13,1-4.44,2.34-10.38,3.1-14.87,2.49-1.21,5.79-2.87,8.2-4.24,5-3.39,7.28-4.94,10.11-9.27-1,4.6-1.55,11-3.6,15.25" style="fill:#fff;opacity:0.4"></path><path d="M379.79,303.91c-1.23.68-2.86,1.62-4.13,2.24l-.87.42-1.35.62c6.28-8,9.75-12.43,14.66-22.58,2.26-1.09,5.25-2.6,7.43-3.84-3.22,5.75-11.21,19.51-15.74,23.14" style="fill:#fff;opacity:0.4"></path><path d="M375,287.08c-3.57,1-8.35,2.21-11.95,3.06,3.5-11.33,3.71-12,5.65-22.41,3.86-.94,9-2.23,12.82-3.29-2.84,12.42-3,13.16-6.52,22.64" style="fill:#fff;opacity:0.4"></path><path d="M341.84,323.35l-2.59.52c5.52-7.11,6-7.69,10-15l3.08-.61c-7.14,12-9.63,14.62-10.48,15.12" style="fill:#fff;opacity:0.4"></path><path d="M337.63,324.18l-2.73.48c5.06-7,5.47-7.6,9.16-14.88l3.25-.57c-6.64,12-8.92,14.51-9.68,15" style="fill:#fff;opacity:0.4"></path><path d="M333.2,324.94l-2.85.44c4.67-7.09,4.95-7.52,8.29-14.74l3.4-.53c-4.26,8.34-4.6,9-8.84,14.83" style="fill:#fff;opacity:0.4"></path><path d="M411.56,237.7c-.19,1.28-.84,3.7-2,4.64-1.3.75-1.53-1.81-.86-4.43s2.05-4.38,2.68-3.27a5.36,5.36,0,0,1,.17,3.06" style="fill:#fff;opacity:0.4"></path><path d="M399.66,271.63c-1,2.2-3.34,6.37-6.14,8-2.68,1.19-2.25-2.18-1.3-4.73,2.13-5.74,7.32-11.06,8.42-8.63.43,1,.06,3-1,5.35" style="fill:#fff;opacity:0.4"></path><path d="M312.26,336.3l-3,2.56a41.55,41.55,0,0,1-5.2,2.63l-.41.05-2.59.23-3.34.25.72-.37.49-.31c2.76-2.42,2.76-2.42,4.08-4.45l3-.2,4.29-.36,2.21-.22-.2.19" style="fill:#fff;opacity:0.4"></path><path d="M297.23,342.46c-1.56.1-3.64.22-5.2.29h0l1-.28c1.8-.08,4.19-.21,6-.33l-1.73.31" style="fill:#fff;opacity:0.4"></path><path d="M415.6,234c-.19,1.29-.73,3.73-1.58,4.7-.82.69-.86-1.17-.75-2.38.28-3,1.55-6.31,2.2-5.61.32.34.37,1.64.13,3.29" style="fill:#fff;opacity:0.4"></path><path d="M418.2,230.14a18.81,18.81,0,0,1-1.14,4.74c-.09.13-.27.38-.35-.14-.31-1.84,1-8.45,1.56-8,.2.18.18,1.56-.07,3.35" style="fill:#fff;opacity:0.4"></path><path d="M238.86,330.54c-2.3-.56-5.36-1.33-7.64-2-7.94-6.07-8.42-6.44-14.3-12.86,2.88.78,6.72,1.78,9.61,2.46,6.16,7.24,6.53,7.68,12.33,12.36" style="fill:#fff"></path><path d="M225.25,324a90.58,90.58,0,0,1-11.72-4.32c-3-2.59-7.05-6.08-9.9-8.87,2.26,1,5.29,2.22,7.6,3.08,1.71.55,4,1.32,5.69,1.82,2.44,2.55,5.71,5.93,8.33,8.29" style="fill:#fff"></path><path d="M202,302c2.64,3.68,6.31,8.48,9.24,11.93-2.3-.88-5.35-2.08-7.6-3.08-7.84-8.81-8.31-9.34-13.77-17.81l3.06,1.37c1.74.67,4,1.6,5.79,2.22L202,302" style="fill:#fff;opacity:0.7000000000000001"></path><path d="M214.43,305.65c1.86,2.94,4.35,6.85,6.4,9.66-2.82-.77-6.56-1.82-9.35-2.69-2.26-2.92-5.25-6.84-7.31-9.91-1.36-2.33-3.24-5.38-4.49-7.76,3.23,1,7.55,2.24,10.82,3.1,1.17,2.29,2.61,5.4,3.93,7.6" style="fill:#fff;opacity:0.7000000000000001"></path><path d="M202.55,291.46c.32.94.38,2.39-1.47,1.92-3.12-1.11-5.45-5.48-3.85-6.19,1.4-.61,4.48,1.86,5.32,4.27" style="fill:#fff"></path><path d="M188.63,268.39c1.05,3.62,2.42,8.46,3.64,12L188.2,279c-3-1.26-7.06-3-10-4.5-4.72-13.15-4.81-13.4-7.48-27.62a105.66,105.66,0,0,0,15.07,6.37c.76,4.57,1.71,10.7,2.86,15.19" style="fill:#fff"></path><path d="M178.71,279.18l-2.93-1.87c-5.29-12.06-7.47-17.06-10.53-33.78l3.21,2.05c2.56,13.27,3.62,18.76,10.25,33.6" style="fill:#fff"></path><path d="M165.64,263.89l-1.59-3.7-3.5-9.58.46,1.19c1.34,3.64,3.09,8.52,4.63,12.09" style="fill:#fff"></path><path d="M161,204.68l-1.53-1.49-.05.43c-3-3.8-3-3.8-3.68-5.75l1.05-6.93a22.52,22.52,0,0,1-.59-3.91l.93-4.59,0,1.42c1.52-5.7,3.82-13.23,5.78-18.79.85,3.53,1.24,5.14,5.43,9.17-3.76,11.51-5.83,17.85-7.38,30.44" style="fill:#fff;opacity:0.7000000000000001"></path><path d="M155.73,197.87c-1.09,13.3-1.18,14.38-.72,23.12a22.44,22.44,0,0,1-.59-2.89l-.26-8.58c.61-14.37.62-14.65,1.93-22.45l.26-1.46-.16,1.42a23.36,23.36,0,0,0,.59,3.91l-1.05,6.93" style="fill:#fff"></path><polyline points="157.95 241.41 157.46 239.32 155.95 231.66 156.12 232.44 157.95 241.41" style="fill:#fff"></polyline><path d="M155.69,228.38c.09.79.24,2.16.21,2.5a.46.46,0,0,1-.07-.16c0-.19-.12-.55-.3-1.78l-.58-4.61a14.66,14.66,0,0,1-.14-1.75c.17.23.7,4.29.88,5.8" style="fill:#fff"></path><path d="M288.93,80a22.94,22.94,0,0,1,2.88.34l-4.32,1.54L288.93,80" style="fill:#fff"></path><polyline points="256.89 82.15 260.02 81.73 256.89 82.15" style="fill:#fff"></polyline><path d="M259.92,81.8l.1-.07.63-.36c12.27-.76,13.85-.85,26.84.54-13.3-1.07-14.69-1.19-27.57-.11" style="fill:#fff;opacity:0.7000000000000001"></path><path d="M259.74,93.16c-.74-.27-1.74-.63-2.47-.93-3.88,2.17-9,5.1-12.77,7.49,1.05.4,2.45,1,3.51,1.31l-.88.68c-1.29-.46-3-1.11-4.28-1.64,11.22-6.85,11.89-7.26,21.76-11.56.56.23,1.31.54,1.89.74l-1.15.56.32.11-5.93,3.24" style="fill:#fff;opacity:0.7000000000000001"></path><path d="M230.07,100.41a20.73,20.73,0,0,1-1.87-2.22c13.15-6.43,13.66-6.68,26.2-10.77a11.45,11.45,0,0,0,1,1.24c-13.48,5.22-14,5.42-25.38,11.75" style="fill:#fff;opacity:0.4"></path><polyline points="255.45 88.66 255.45 88.66 261.63 86.7 255.45 88.66" style="fill:#fff"></polyline><path d="M212.32,125.46a38.73,38.73,0,0,1-7.48-4.52c14.61-13.27,21.69-18.53,40.42-27.74a19.48,19.48,0,0,0,3.82,2.31c-14.82,9-21.83,14-36.76,29.95" style="fill:#fff;opacity:0.4"></path><path d="M263.38,87.91c-.46-.28-1.06-.66-1.49-1,13.28-3.45,14.36-3.73,25.6-5h0c-12.82,2.34-13.87,2.53-24.11,6" style="fill:#fff;opacity:0.7000000000000001"></path><path d="M208.08,116.43a28.92,28.92,0,0,1-2.58-3.07c11.1-8.44,11.76-9,21.91-14.75a20.45,20.45,0,0,0,1.89,2.25c-11.64,7.58-12.34,8-21.22,15.57" style="fill:#fff;opacity:0.4"></path><path d="M215.9,105.17c-.79-2.07-1.14-3-.06-5.64,12.82-6.87,13.06-7,26.41-11.71a3.8,3.8,0,0,0,0,3.56c-13.83,6-14.09,6.15-26.39,13.79" style="fill:#fff;opacity:0.4"></path><path d="M268.51,87.83c-.54-.22-1.25-.52-1.78-.77,12.13-3.67,12.86-3.89,20.76-5.15h0a141.73,141.73,0,0,0-17.29,5.23,5.34,5.34,0,0,1-1.69.69" style="fill:#fff;opacity:0.7000000000000001"></path><path d="M279,84.8l-.88-.27c-2.71,1-6.36,2.34-9,3.52l-.4-.15c11-4.16,11.64-4.41,18.79-6h0l-5.64,1.63.26.08L279,84.8" style="fill:#fff;opacity:0.7000000000000001"></path><path d="M248.52,89.1c-1,.32-3.35,1.06-3.61.81.05-.62,7.21-3,7.74-2.51-.06.36-4.09,1.68-4.13,1.7" style="fill:#fff"></path><path d="M248.14,87.92c-1.24.37-3.35,1-3.49.71.25-.6,6.86-2.56,7.77-2.3v.06a31,31,0,0,1-4.28,1.53" style="fill:#fff"></path><path d="M248.22,86.75a11.61,11.61,0,0,1-3.33.65v0c.47-.62,7-2.37,7.73-2.07-.1.28-3.11,1.11-4.4,1.46" style="fill:#fff"></path><path d="M194.59,115.28a29.19,29.19,0,0,1,2.49-3.36c9.9-8.27,10.49-8.77,19.72-14.42a22.56,22.56,0,0,0-1.94,2.63c-11.22,7.35-11.89,7.79-20.27,15.15" style="fill:#fff;opacity:0.4"></path><path d="M162.94,165.07c-1.95,5.57-4.28,13.09-5.78,18.79l0-1.42.24-1.82c1.19-4.48,2.8-10.46,4.25-14.86l1.22-3.35,3.26-7.72a21.33,21.33,0,0,0-.64,4.5l-2.51,5.88" style="fill:#fff"></path><path d="M170.93,168.31c-3.28-3.4-4.78-4.94-5.48-9.12a21.9,21.9,0,0,1,.64-4.5c2.1-4.1,4.95-9.54,7.31-13.49-.81,3.31-1.71,7.07,4.55,12.8-2.19,4.25-5.07,9.94-7,14.31" style="fill:#fff"></path><path d="M227.9,92.57A26.51,26.51,0,0,1,230,90.42l4.95-2-.7.61c12.11-4,12.35-4.07,18.9-5.35-.24.26-.58.59-.79.87-13.24,3.42-14,3.63-24.45,8" style="fill:#fff;opacity:0.4"></path><path d="M220.25,96.3a27,27,0,0,1,2.36-2.42l5.71-2.74a26.37,26.37,0,0,0-2.15,2.21l-5.92,3" style="fill:#fff;opacity:0.4"></path><path d="M174.12,143.32a21.05,21.05,0,0,1,.59-4.18c7.56-10.59,7.71-10.79,12.57-16.09a17.94,17.94,0,0,0-.53,3.71c-8.5,10.24-8.66,10.43-12.63,16.56" style="fill:#fff;opacity:0.4"></path><path d="M171.73,143.68l.4-.73c3-4.66,7-10.77,10.31-15.21,8.37-9.91,8.53-10.1,13.77-15a30.75,30.75,0,0,0-3,3.89c-9.29,9.55-13.13,13.5-21.45,27.1" style="fill:#fff;opacity:0.4"></path><path d="M213.37,158.42c-1.47,2.83-4.58,3.54-5.38,1.24s1.79-6.41,4.56-5.85c1.87.67,1.6,3.1.82,4.61m8.16,6.59c1.59-4.26,3.74-9.93,5.48-14.13-2-.45-4.74-1-6.76-1.5l3.3-6.52-2.24-.57c-1.46,2.81-3.46,6.52-4.83,9.37-2.92-.82-6.81-1.95-9.69-2.87,1.64-2.76,3.76-6.47,5.49-9.17a74.52,74.52,0,0,1-9.45-3.84c-7.48,10.72-8.09,11.59-12.45,19.47,6,2.7,13.52,6.06,31.15,9.76" style="fill:#fff"></path><polyline points="168.03 150.54 169.88 146.97 169.71 147.3 168.03 150.54" style="fill:#fff"></polyline><path d="M189.49,154.81c-2-1.13-4.66-2.69-6.57-4,7.54-11.69,8-12.39,15.45-21.31,1.64,1.08,3.88,2.45,5.6,3.39-8.21,11.14-8.7,11.81-14.48,21.91" style="fill:#fff;opacity:0.4"></path><path d="M273.51,77.35l2.84-.27c1.58-.11,3.68-.25,5.26-.33a8.63,8.63,0,0,1,1.89.5c-2.42.13-2.86.15-5,.36a34.49,34.49,0,0,0-5-.26" style="fill:#fff"></path><path d="M283.39,76.9c3-.07,3.28-.08,5.51-.06l-.12.17,2.59.07-1.24.94-.71.8c-.48,0-1.12,0-1.61,0-1.38,0-1.43,0-2.18,0a11.62,11.62,0,0,0-2.24-1.91" style="fill:#fff"></path><path d="M211.38,182.76a170.1,170.1,0,0,1-19-5.37c1.71-4.49,4-10.47,5.93-14.88a172.93,172.93,0,0,0,17.85,5c-1.48,4.54-3.43,10.62-4.75,15.22" style="fill:#fff"></path><path d="M193.94,215.63a139,139,0,0,1-20.32-7.41c2.2-12.69,3.3-19.06,8.37-33a126.47,126.47,0,0,0,18.83,6.86c-3.41,12.57-5.11,18.88-6.88,33.55" style="fill:#fff;opacity:0.30000000000000004"></path><path d="M297.37,77l2.71.24,2.69.28a42.3,42.3,0,0,0-7.37.61l-2.58-.25a16.23,16.23,0,0,1,4.55-.88" style="fill:#fff"></path><path d="M217.86,96.23l1.67-1L225.29,92c-.95.54-2.24,1.26-3.17,1.86l-4.26,2.41" style="fill:#fff;opacity:0.4"></path><path d="M224.78,92.44c1.19-.72,2.81-1.64,4.05-2.28l5.82-2.68a31.52,31.52,0,0,0-5.41,2.87l-4.46,2.09" style="fill:#fff;opacity:0.4"></path><path d="M232,89.17A33.3,33.3,0,0,1,238.28,86l4.11-1.51a32.27,32.27,0,0,0-5.08,2.5l-.53.18-.68.44L232,89.17" style="fill:#fff;opacity:0.4"></path><path d="M178.91,178.61c-.49,1.18-1.72,3-3.2,2.34-2.35-1.59-.46-7.25,1.86-7.7,1.74-.33,2.47,2.62,1.34,5.36" style="fill:#fff"></path><path d="M201.15,108.3l-1.47,1.25,5.62-4.64s-2.21,1.76-4.15,3.39" style="fill:#fff;opacity:0.4"></path><path d="M175.16,191c-.39,1.21-1.45,3.08-3,2.41-2.44-1.64-1-7.48,1.2-7.95,1.7-.35,2.67,2.7,1.76,5.54" style="fill:#fff"></path><path d="M172.48,203.79c-.28,1.23-1.17,3.14-2.7,2.45-2.43-1.61-1.57-7.67.51-8.12,1.65-.36,2.85,2.77,2.19,5.67" style="fill:#fff"></path><path d="M255.36,83.29l-2.22.42c-12.74,3-12.74,3-18.9,5.35l.7-.61,1.16-.86.68-.44.53-.18c11.42-3.46,12.1-3.66,19.58-4.82l3.13-.42-.1.07-.61.42-.66.54-3.29.53" style="fill:#fff"></path><path d="M164.5,218.7c0,4.89.05,11.41.35,16.29a73.86,73.86,0,0,1-5.89-4.84c-.58-12.7-.68-15,.45-26.53l.05-.43,1.53,1.49c1.29,1,3,2.41,4.34,3.34-.25,3.2-.77,7.47-.83,10.68" style="fill:#fff"></path><path d="M179.86,242.47c-8.47-3.56-8.8-3.7-15-7.48-.21-4.88-.44-11.4-.35-16.29,6.7,4,6.83,4.09,15.05,7.51,0,4.88,0,11.39.31,16.26" style="fill:#fff;opacity:0.30000000000000004"></path><path d="M284.1,86.24l1-1.36-1.22-.12L280.52,88l.25,0,1.8-1.87,1.53.13" style="fill:#fff"></path><path d="M288.12,82.41l-.58,0-.05-.52.63.5" style="fill:#fff"></path><path d="M291.33,85.32c-1.08.09-1.24.11-2.23.15l-.93-2.17h-.55l0-.25a11.94,11.94,0,0,0,1.24-.06l2.49,2.32" style="fill:#fff"></path><path d="M284.41,84.05a16.24,16.24,0,0,1-2.3-.43l-.26-.08,5.64-1.63h0l-3.08,2.14" style="fill:#fff"></path><path d="M203.15,225.22a180.74,180.74,0,0,1-20.61-5.94l.4-4.18A178.7,178.7,0,0,0,203.47,221l-.32,4.21" style="fill:#fff;opacity:0.30000000000000004"></path><polyline points="314.22 91.65 311.49 90.27 314.22 91.65" style="fill:#fff"></polyline><path d="M334.83,86c.82.52,1.91,1.24,2.69,1.83C325,84,324.2,83.8,313.15,82.22c-.4-.3-.95-.68-1.38-.94A102.91,102.91,0,0,1,334.83,86" style="fill:#fff"></path><path d="M370.28,108.47a14.32,14.32,0,0,1,0,3.07c-11.19-8.19-11.86-8.68-22.09-14.26a10,10,0,0,0,0-2.25c12.13,6.41,12.86,6.79,22.1,13.44" style="fill:#fff;opacity:0.30000000000000004"></path><path d="M326.7,88.59c1.59.53,3.29,1.25,3.31,1.55-.36.33-7.66-2.08-7.73-2.55.24-.19,2.58.38,4.42,1" style="fill:#fff"></path><path d="M326.12,89.74c1.61.59,3.19,1.35,3.11,1.65-.51.31-7.67-2.32-7.59-2.78.33-.18,2.64.45,4.48,1.13" style="fill:#fff"></path><path d="M325.11,90.86c1.56.65,3.05,1.45,2.87,1.74-.66.3-7.14-2.3-7.38-3,.15-.28,2.6.44,4.51,1.22" style="fill:#fff"></path><path d="M236.57,114.93c-2.86,3.37-6.65,7.88-9.35,11.38-2.21-.69-5.15-1.65-7.33-2.43,9-9.84,9.59-10.43,17.87-17.52,1.6.57,3.76,1.3,5.39,1.8-2,2-4.71,4.64-6.58,6.77" style="fill:#fff;opacity:0.4"></path><path d="M231.13,151.68l-4.12-.8c-2-.45-4.74-1-6.76-1.5l3.3-6.52c2.61-4.6,6.19-10.67,9-15.13,2.66.6,6.21,1.37,8.89,1.89-5.78,11.21-6.12,11.88-10.33,22.06" style="fill:#fff;opacity:0.4"></path><path d="M375,128.32c-1.51,1-3.55,2.25-5.13,3.12-9-10.41-9.55-11-18-18.67,1.22-.7,2.84-1.65,4-2.44,10.57,8.92,11.2,9.46,19.08,18" style="fill:#fff;opacity:0.30000000000000004"></path><path d="M243.38,162.62c-3.8-.53-8.87-1.26-12.66-1.87,4.49-12.56,4.76-13.31,9.14-23.08,3.18.5,7.43,1.14,10.63,1.57-3.6,10.74-4.25,12.67-7.11,23.38" style="fill:#fff"></path><path d="M414.9,190.44a56.08,56.08,0,0,1-4.52,4.6c-3.3-13.62-3.5-14.43-7.75-25.39a50.49,50.49,0,0,0,4.23-4.3c5.06,13,5.36,13.76,8,25.09" style="fill:#fff"></path><path d="M420.35,210l-.33,9.26-.5,2.53c.4-14.28.43-15.14-1-26.92a23.5,23.5,0,0,0,.41-4.73c.63,5.94,1.44,13.88,1.43,19.86" style="fill:#fff;opacity:0.4"></path><path d="M221.31,142.29c-1.46,2.81-3.46,6.52-4.83,9.37-2.92-.82-6.81-1.95-9.69-2.87,1.64-2.76,3.76-6.47,5.49-9.17,2.53-3.7,5.94-8.63,8.64-12.21,2.39.75,5.58,1.71,8,2.37-2.34,3.72-5.51,8.65-7.61,12.51" style="fill:#fff;opacity:0.4"></path><path d="M349.94,108.07c-1.26.7-3,1.6-4.25,2.22l-5.12-4.18c1.18-.58,2.74-1.37,3.88-2l5.49,4" style="fill:#fff"></path><path d="M370.2,146.33c-2.23.77-5.21,1.78-7.46,2.47-6.37-11.23-9.28-16.35-18.17-27.49,1.7-.54,4-1.26,5.65-1.87,8.33,9.62,12.13,14,20,26.89" style="fill:#fff;opacity:0.30000000000000004"></path><path d="M375.74,156.43c-2.38.82-5.55,1.9-8,2.63l-3.87-8c2.28-.73,5.32-1.7,7.57-2.5l4.26,7.9" style="fill:#fff;opacity:0.30000000000000004"></path><path d="M398.42,149.05a51.14,51.14,0,0,1-3.93,4c-7.15-11.52-7.28-11.74-11.89-17.64a40.43,40.43,0,0,0,3.49-3.56" style="fill:#fff;opacity:0.30000000000000004"></path><path d="M396.47,160A65.1,65.1,0,0,1,382,167.45c-5.8-12.65-8.19-17.89-17.46-31.5,4.78-2,7.67-3.2,11.77-6.06,8.73,10.86,12.34,15.35,20.14,30.12" style="fill:#fff;opacity:0.30000000000000004"></path><path d="M269.88,91.05c-2-.48-2.46-.58-4.21-1.13l-.32-.11,1.15-.56,2.6-1.2c2.7-1.07,6.27-2.59,9-3.52l.88.27,1,.25c-3.09,1.72-7.2,4.06-10.16,6" style="fill:#fff;opacity:0.7000000000000001"></path><path d="M404.29,146.29l3.13,6.15.12.26c-2.14-4-5.05-9.44-7.44-13.35l-.92-1.67,5.11,8.61" style="fill:#fff;opacity:0.30000000000000004"></path><path d="M406.48,185.79c-5.61,3.66-5.72,3.73-13.17,7.08a139.08,139.08,0,0,1-15,5.09l-.79-3.58c-1.48-5.77-3.63-13.43-5.41-19.12,7.92-2.41,17.78-5.41,26.23-11.34,5.28,12.44,5.59,13.19,8.12,21.87" style="fill:#fff"></path><path d="M293.63,99.55c-3.83.12-4.75.14-9.14.09.34-2.51.78-5.84,1.16-8.34,2.41,0,2.84,0,5.06,0,.59,2.37,1.37,5.52,1.9,7.9l.92,0,.1.41" style="fill:#fff"></path><path d="M284.72,93.49c-2.86-.11-3.22-.13-5.36-.29l.69-1.22c-.74-.07-1.72-.15-2.46-.23L280.77,88l1.8-1.87,1.53.13c1.36.09,1.39.09,2.13.11-.48,2.14-1.1,5-1.51,7.14" style="fill:#fff"></path><path d="M256.26,115.36c-2.26-.37-5.27-.88-7.52-1.3,9.35-11.78,14.39-17.42,26.75-26,.7.13,1.63.3,2.33.41-7.77,7.19-12.26,11.65-21.56,26.87" style="fill:#fff"></path><path d="M281.6,101.9c-1.43-.07-3.34-.17-4.77-.26l-.94,2.54-1.72-.13c1.22-2.72,2.86-6.33,4.19-9,1.42.1,3.32.22,4.74.28-.46,2-1.08,4.59-1.5,6.57" style="fill:#fff"></path><path d="M289.1,85.47l.37.94h-.22l1,3.08c-2.06,0-2.43,0-4.42,0,.28-1.37.62-3.2.93-4.56l.4-1.65h1.05l.93,2.17" style="fill:#fff"></path><path d="M213.37,158.42c-.59,1.13-2.1,2.93-4.07,2.53-2.74-1-1.23-5.69,1.54-6.94,2.27-1,3.81,1,2.85,3.68a6.73,6.73,0,0,1-.32.73" style="fill:#fff"></path><path d="M365.55,128.52c.71.91,1.75,2.81.66,3.45-2.23.72-6-4.15-5.3-5.7.54-1.1,3,.07,4.64,2.25" style="fill:#fff;opacity:0.30000000000000004"></path><path d="M326.49,120.66c-6.13,1-7.77,1.22-15.47,2-1.28-3.42-3-8-4.41-11.37,5.52-.58,6.52-.68,11.13-1.39l1.45,2.13,1.52-.25c1.75,2.65,4.12,6.16,5.78,8.87" style="fill:#fff"></path><path d="M309.77,122.78c-6.76.51-8.36.63-16.26.87-.32-3.46-.76-8.09-1.12-11.55,5.46-.18,6.93-.22,13.21-.7,1.29,3.4,3,7.94,4.17,11.38" style="fill:#fff;opacity:0.30000000000000004"></path><path d="M328.16,136.88c-7.92,1-9.8,1.25-19.25,2-.86-3.88-2-9-3-12.9,6.92-.55,8.78-.7,16.56-1.7,1.75,3.76,4.05,8.8,5.66,12.62" style="fill:#fff;opacity:0.4"></path><path d="M258.18,138.13c-7.45-.82-9.45-1-17.6-2.35,1.92-3.77,4.49-8.78,6.55-12.48,6,1,7.62,1.21,15.15,2-1.27,3.83-2.94,8.94-4.1,12.8" style="fill:#fff"></path><path d="M265.24,167.93c-4.21-.3-9.82-.72-14-1.1,1.89-9,3.68-17.43,7-28.7,1.19-3.85,2.8-9,4.1-12.8,2.92.25,6.82.56,9.75.76-3,14.81-4.45,23.36-6.79,41.84" style="fill:#fff;opacity:0.30000000000000004"></path><path d="M307.39,139c-8.25.42-10.21.52-19.73.6,0-3.9,0-9.1,0-13,7-.07,8.86-.09,17-.52.86,3.87,2,9,2.77,12.92" style="fill:#fff;opacity:0.30000000000000004"></path><path d="M274.8,155.55l-5.77-.26c.58-4.22,1.36-9.84,2-14l5.15.23c-.42,4.22-1,9.85-1.37,14.08" style="fill:#fff;opacity:0.30000000000000004"></path><path d="M301,188.41c-15.51.29-20,.28-36.41-.46.78-8.57,1.67-18.29,3.22-30.23,13.87.62,17.68.67,31.34.4.58,8.2,1.24,17.5,1.85,30.29" style="fill:#fff;opacity:0.30000000000000004"></path><path d="M292.24,123.54c-9.46,0-12.18,0-22.1-.57,2.51-9.06,3-10.94,5.75-18.79l.94-2.54c1.43.08,3.34.2,4.77.26,4.23.11,5,.13,8.82.09.53,5.46,1.13,11.64,1.82,21.55" style="fill:#fff;opacity:0.30000000000000004"></path><path d="M369.36,219.65c-4.49.9-10.48,2-15,2.84C353.17,209.7,353,207.4,351,195.62c4.28-.76,10-1.81,14.24-2.69,2.71,14,2.87,14.86,4.12,26.72" style="fill:#fff;opacity:0.4"></path><path d="M350.79,264.18l-1,.15c-12.09,1.63-13.65,1.84-23.6,2.74l.18-3.39A429,429,0,0,0,326,217c12.06-1.18,14.24-1.39,24.43-2.86,1.73,20.77,1.81,31.53.39,50" style="fill:#fff;opacity:0.4"></path><path d="M354.76,192.46c-7.64.89-17.84,2-25.51,2.72-2.21-19.59-2.61-23.12-5.35-40.83,7-.68,16.21-1.64,23.14-2.47,4.12,19,4.87,22.38,7.72,40.58" style="fill:#fff;opacity:0.7000000000000001"></path><path d="M310.61,268.55c-17.2.34-27.58.55-49.51-.29l-3.22-.15c0-5.86.05-13.68.12-19.55.15-7.12.37-16.63.6-23.75,20.41.75,28.63,1,51.63.43.31,17.66.4,22.41.38,43.31" style="fill:#fff;opacity:0.7000000000000001"></path><path d="M316.65,166.76c-4.38.28-10.22.62-14.61.81-.68-8.14-1.45-17.36-2.7-28.22,3.56-.16,8.31-.41,11.87-.65,1.65,7.51,3.53,16,5.44,28.06" style="fill:#fff"></path><path d="M348.5,142.69l-2.65.58c-6-11.55-6.36-12.24-12-21l2.11-.46c7,10.51,7.39,11.14,12.55,20.85" style="fill:#fff"></path><path d="M352.61,141.72l-2.53.61c-6.43-11.45-6.82-12.14-12.88-20.78l2-.49c7.44,10.41,7.88,11,13.4,20.66" style="fill:#fff;opacity:0.30000000000000004"></path><path d="M356.48,140.69l-2.38.65c-6.85-11.35-7.26-12-13.71-20.58l1.89-.51c7.88,10.28,8.35,10.89,14.2,20.44" style="fill:#fff;opacity:0.30000000000000004"></path><path d="M302.41,212.77a4.21,4.21,0,0,1-4.22,3.79c-4.18-.12-5.59-4.52-3.15-6.93,2.66-2.62,7.28-.91,7.38,2.73a2.81,2.81,0,0,1,0,.41" style="fill:#fff;opacity:0.7000000000000001"></path><path d="M318.37,178.83a7.38,7.38,0,0,1-7,7.54c-8,0-10.95-9-6.14-13.56s13-.72,13.18,6" style="fill:#fff"></path><path d="M316.65,90.62l2,.92c11.55,5.94,11.55,5.94,17.13,9.66l-1.16.54-1.85.78-1,.38-.46-.35c-9.95-7-10.55-7.41-17.08-10.9l-2.73-1.38.15-.06.95-.37,1.08-.5,3,1.28" style="fill:#fff"></path><polyline points="309.8 94.51 309.08 93.95 306.14 91.77 309.8 94.51" style="fill:#fff"></polyline><path d="M306.14,91.77l4,3c-1.25.25-2.91.57-4.17.78-2.86.42-4.93.72-9,1-1.21-2.33-2.83-5.43-4.17-7.69a56.43,56.43,0,0,0,7.35-1l6,3.91" style="fill:#fff"></path><path d="M301.62,106.8c.24.76.34,2.25-1,2.44-2.39,0-3.43-3.83-2.28-4.84,1-.84,2.75.69,3.28,2.4" style="fill:#fff;opacity:0.30000000000000004"></path><path d="M295.92,107.14c.13.82,0,2.26-1.36,2.4-2.23-.08-2.8-3.68-1.65-4.79s2.72.57,3,2.39" style="fill:#fff;opacity:0.30000000000000004"></path><path d="M288.57,213a4.2,4.2,0,0,1-4.3,3.66c-4.17-.24-5.46-4.68-2.95-7,2.72-2.53,7.27-.68,7.27,3a2.82,2.82,0,0,1,0,.41" style="fill:#fff;opacity:0.7000000000000001"></path><path d="M274.81,212.8a4.13,4.13,0,0,1-4.33,3.52,4.09,4.09,0,0,1-2.72-7.1,4.24,4.24,0,0,1,7.08,3.16c0,.13,0,.3,0,.42" style="fill:#fff;opacity:0.7000000000000001"></path></g><path d="M254.07,202.15c-1.22,6.52-7.57,18.55-22.86,17.37-21.06-4-22.38-29.91-6.56-39.88,15-9.43,32.85,4.24,29.42,22.51" style="fill:#fff;opacity:0.8"></path><path d="M230.57,217.7c-.68,0-1.38,0-2.11-.08-9.26-1.75-15.74-8-17.39-16.69a23.65,23.65,0,0,1,10.57-24.23,19,19,0,0,1,21.33.22c7.25,4.93,10.68,13.69,9,22.87h0C250.73,206.18,244.74,217.7,230.57,217.7Zm1.65-43a18.58,18.58,0,0,0-10,3,22.49,22.49,0,0,0-10.07,23.06c1.56,8.22,7.7,14.12,16.43,15.78,14.82,1.13,21-10.57,22.2-16.92h0c1.64-8.73-1.61-17.06-8.48-21.72A17.83,17.83,0,0,0,232.22,174.67Z" style="fill:#fff"></path><path d="M235,168.49a.52.52,0,0,1-.17,0,.56.56,0,0,1-.36-.71c14-43.55,38.13-77.8,64.58-91.62a.57.57,0,0,1,.77.24.58.58,0,0,1-.24.76c-26.2,13.69-50.14,47.69-64,91A.56.56,0,0,1,235,168.49Z" style="fill:#fff"></path><path d="M226.18,284.78a.56.56,0,0,1-.55-.45c-3.6-18.16-4.51-38.06-2.7-59.16a.56.56,0,1,1,1.12.1c-1.79,21-.89,40.79,2.69,58.84a.57.57,0,0,1-.45.66Z" style="fill:#fff"></path><path d="M252,339.12a.54.54,0,0,1-.39-.16c-10.09-9.91-18.11-24.8-23.2-43a.57.57,0,0,1,.4-.69.55.55,0,0,1,.69.39c5,18.06,12.95,32.77,22.9,42.54a.57.57,0,0,1,0,.8A.58.58,0,0,1,252,339.12Z" style="fill:#fff"></path><path d="M381.87,249.75l-10-7.07a2.72,2.72,0,0,0-2.33-.39l-21.16,6.22a2.71,2.71,0,0,0-1.84,3.37l10.93,37.2a2.72,2.72,0,0,0,3.37,1.84l49.75-14.62a2.71,2.71,0,0,0,1.83-3.37l-7.64-26a2.71,2.71,0,0,0-3.37-1.84l-17.24,5.07A2.72,2.72,0,0,1,381.87,249.75Z" style="fill:#263238"></path><rect x="359.89" y="222.94" width="44.14" height="46.28" transform="translate(-23.23 40.49) rotate(-5.89)" style="fill:#fff"></rect><path d="M355.6,256.61l5.07,31.54a2.33,2.33,0,0,0,3,1.93l49.75-14.62a3.17,3.17,0,0,0,2.17-3.46l-5.07-31.54a2.33,2.33,0,0,0-3-1.93l-49.75,14.62A3.17,3.17,0,0,0,355.6,256.61Z" style="fill:#02AC13"></path><g style="opacity:0.30000000000000004"><path d="M355.6,256.61l5.07,31.54a2.33,2.33,0,0,0,3,1.93l49.75-14.62a3.17,3.17,0,0,0,2.17-3.46l-5.07-31.54a2.33,2.33,0,0,0-3-1.93l-49.75,14.62A3.17,3.17,0,0,0,355.6,256.61Z" style="fill:#fff"></path></g><rect x="233.67" y="247.8" width="33.53" height="31.95" transform="translate(179.12 -92.89) rotate(32.21)" style="fill:#fff"></rect><path d="M237.32,96.44l-7.7-6.8a2.25,2.25,0,0,0-1.91-.53l-18.23,3.3a2.27,2.27,0,0,0-1.84,2.64l5.8,32.06a2.26,2.26,0,0,0,2.64,1.83L259,121.19a2.28,2.28,0,0,0,1.84-2.65l-4.06-22.42a2.28,2.28,0,0,0-2.64-1.84L239.23,97A2.25,2.25,0,0,1,237.32,96.44Z" style="fill:#02AC13"></path><path d="M237.32,96.44l-7.7-6.8a2.25,2.25,0,0,0-1.91-.53l-18.23,3.3a2.27,2.27,0,0,0-1.84,2.64l5.8,32.06a2.26,2.26,0,0,0,2.64,1.83L259,121.19a2.28,2.28,0,0,0,1.84-2.65l-4.06-22.42a2.28,2.28,0,0,0-2.64-1.84L239.23,97A2.25,2.25,0,0,1,237.32,96.44Z" style="fill:#fff;opacity:0.30000000000000004"></path><path d="M236.33,98.21l-7.7-6.79a2.26,2.26,0,0,0-1.91-.54l-18.23,3.3a2.28,2.28,0,0,0-1.84,2.64l5.8,32.06a2.28,2.28,0,0,0,2.64,1.84L258,123a2.27,2.27,0,0,0,1.84-2.64l-4.06-22.43a2.28,2.28,0,0,0-2.64-1.83l-14.86,2.69A2.29,2.29,0,0,1,236.33,98.21Z" style="fill:#02AC13"></path><path d="M236.33,98.21l-7.7-6.79a2.26,2.26,0,0,0-1.91-.54l-18.23,3.3a2.28,2.28,0,0,0-1.84,2.64l5.8,32.06a2.28,2.28,0,0,0,2.64,1.84L258,123a2.27,2.27,0,0,0,1.84-2.64l-4.06-22.43a2.28,2.28,0,0,0-2.64-1.83l-14.86,2.69A2.29,2.29,0,0,1,236.33,98.21Z" style="fill:#fff;opacity:0.6000000000000001"></path><path d="M254.47,262.8l-2.63-8.5a2,2,0,0,0-1.17-1.26l-15-5.78a2,2,0,0,0-2.55,1.14L223,274.74a2,2,0,0,0,1.13,2.55l35.23,13.59a2,2,0,0,0,2.55-1.13L269,271.32a2,2,0,0,0-1.13-2.55l-12.21-4.71A2,2,0,0,1,254.47,262.8Z" style="fill:#02AC13"></path><path d="M254.47,262.8l-2.63-8.5a2,2,0,0,0-1.17-1.26l-15-5.78a2,2,0,0,0-2.55,1.14L223,274.74a2,2,0,0,0,1.13,2.55l35.23,13.59a2,2,0,0,0,2.55-1.13L269,271.32a2,2,0,0,0-1.13-2.55l-12.21-4.71A2,2,0,0,1,254.47,262.8Z" style="opacity:0.6000000000000001"></path><rect x="233.67" y="247.8" width="33.53" height="31.95" transform="translate(179.12 -92.89) rotate(32.21)" style="fill:#fff"></rect><rect x="241.24" y="249.99" width="25.32" height="31.95" transform="translate(180.82 -94.4) rotate(32.21)" style="fill:#02AC13;opacity:0.30000000000000004"></rect><rect x="247.35" y="242.25" width="33.53" height="38.95" transform="translate(237.07 -109.12) rotate(41.09)" style="fill:#fff"></rect><path d="M252.94,263.67l-2.63-8.5a2,2,0,0,0-1.18-1.26l-15-5.78a2,2,0,0,0-2.55,1.13l-10.17,26.35a2,2,0,0,0,1.14,2.55l35.23,13.59a2,2,0,0,0,2.55-1.13l7.11-18.43a2,2,0,0,0-1.13-2.55l-12.22-4.71A2,2,0,0,1,252.94,263.67Z" style="fill:#02AC13"></path><path d="M252.94,263.67l-2.63-8.5a2,2,0,0,0-1.18-1.26l-15-5.78a2,2,0,0,0-2.55,1.13l-10.17,26.35a2,2,0,0,0,1.14,2.55l35.23,13.59a2,2,0,0,0,2.55-1.13l7.11-18.43a2,2,0,0,0-1.13-2.55l-12.22-4.71A2,2,0,0,1,252.94,263.67Z" style="opacity:0.4"></path><path d="M376.55,137.43a29.08,29.08,0,0,0-52.78-.54,13.64,13.64,0,0,0-1.44-.06A20.79,20.79,0,0,0,302.54,164h88.83a20.79,20.79,0,0,0-14.82-26.56Z" style="fill:#fff"></path><path d="M317.72,282.36a29.26,29.26,0,0,1,53.11-.55c.47,0,1-.06,1.45-.06a20.95,20.95,0,0,1,19.92,27.34H302.8a20.95,20.95,0,0,1,14.92-26.73Z" style="fill:#fff"></path><path d="M226.9,125.24a6.46,6.46,0,0,0-1.25.12,11.47,11.47,0,0,0-21.5-1.1,7.3,7.3,0,0,0-1.14-.09,7.61,7.61,0,0,0-7.61,7.61,7.48,7.48,0,0,0,.37,2.33h37.64a6.92,6.92,0,0,0,.31-2.05A6.82,6.82,0,0,0,226.9,125.24Z" style="fill:#fff"></path><path d="M219,304.53a8,8,0,0,0-1.62.16,14.85,14.85,0,0,0-27.84-1.43,9.13,9.13,0,0,0-1.48-.11A9.85,9.85,0,0,0,178.66,316h48.75A8.85,8.85,0,0,0,219,304.53Z" style="fill:#fff"></path></g></svg>
