<svg xmlns="http://www.w3.org/2000/svg" viewBox="0 0 500 500"><g id="freepik--background-simple--inject-26"><path d="M429.5,103.48l-2.43-4c-20.52-33.81-57.61-54.19-96.72-51.71a103.61,103.61,0,0,0-15,2.05c-35.56,7.61-66.5,34.5-79.32,68.94-7.54,20.25-9.65,43.57-24,59.65C193.47,199.32,161.85,200,134,199.11S74.59,199,56.06,220c-11.61,13.15-15.3,31.86-14.37,49.47,2.48,46.65,35,88.35,76.32,109.08S208,401.12,253.24,392c63.37-12.78,123.63-47.86,159.85-102S458.48,162,429.5,103.48Z" style="fill:#f5f5f5"></path></g><g id="freepik--Clock--inject-26"><rect x="252.47" y="48.02" width="19.32" height="30.14" style="fill:#263238"></rect><path d="M282.14,57H242.36V24.54c13.92-3.43,27.23-3.64,39.78,0Z" style="fill:#03AC13"></path><path d="M282.61,24.68a6.92,6.92,0,0,1-1.47.73A36.8,36.8,0,0,1,277,27a48.93,48.93,0,0,1-6.45,1.53,55.86,55.86,0,0,1-8.1.69,55,55,0,0,1-8.1-.61,48.74,48.74,0,0,1-6.47-1.47,38.38,38.38,0,0,1-4.2-1.5,7.71,7.71,0,0,1-1.47-.71c0-.12,2.19.78,5.81,1.75a55.83,55.83,0,0,0,6.42,1.31,60.24,60.24,0,0,0,8,.55,57.83,57.83,0,0,0,8-.63,54.89,54.89,0,0,0,6.42-1.37C280.42,25.49,282.56,24.56,282.61,24.68Z" style="fill:#263238"></path><path d="M255.5,57c-.19,0-.34-6.24-.34-13.93s.15-13.94.34-13.94.34,6.24.34,13.94S255.69,57,255.5,57Z" style="fill:#263238"></path><path d="M263.07,57.13c-.19,0-.34-6.26-.34-14s.15-14,.34-14,.34,6.26.34,14S263.26,57.13,263.07,57.13Z" style="fill:#263238"></path><path d="M270.64,57c-.19,0-.34-6.27-.34-14s.15-14,.34-14,.34,6.26.34,14S270.83,57,270.64,57Z" style="fill:#263238"></path><path d="M276.94,57c-.19,0-.34-6.77-.34-15.13s.15-15.12.34-15.12.34,6.77.34,15.12S277.13,57,276.94,57Z" style="fill:#263238"></path><path d="M248.34,56.82c-.19,0-.34-6.78-.34-15.13s.15-15.13.34-15.13.34,6.78.34,15.13S248.53,56.82,248.34,56.82Z" style="fill:#263238"></path><rect x="362.08" y="88.48" width="13.97" height="21.8" transform="translate(185.94 -236.11) rotate(46.3)" style="fill:#263238"></rect><path d="M382.23,106.82,362.36,86l17-16.23c8.76,5.56,15.51,12.41,19.88,20.8Z" style="fill:#03AC13"></path><path d="M365.68,89.5c-.11-.12,3.74-4,8.6-8.72s8.9-8.41,9-8.3-3.74,4-8.6,8.72S365.79,89.62,365.68,89.5Z" style="fill:#263238"></path><path d="M369.47,93.47a23.13,23.13,0,0,1,2.59-2.62c1.64-1.56,3.94-3.69,6.49-6l6.57-5.94,2-1.79c.48-.42.72-.64.74-.64.22.2-3.81,4.14-8.92,8.8-2.55,2.34-4.89,4.42-6.61,5.9A22.85,22.85,0,0,1,369.47,93.47Z" style="fill:#263238"></path><path d="M374.51,98.74a24.51,24.51,0,0,1,2.63-2.63c1.66-1.57,4-3.71,6.59-6.06l6.68-6,2-1.78a8.27,8.27,0,0,1,.77-.62,15.32,15.32,0,0,1-2.54,2.71c-1.65,1.59-4,3.74-6.57,6.09s-5,4.43-6.71,5.93A22.57,22.57,0,0,1,374.51,98.74Z" style="fill:#263238"></path><path d="M379.23,103.55c-.11-.12,3.79-4,8.72-8.66s9-8.36,9.11-8.24-3.79,4-8.72,8.66S379.34,103.66,379.23,103.55Z" style="fill:#263238"></path><rect x="133.38" y="97.32" width="13.97" height="21.8" transform="translate(-36.49 119.95) rotate(-41.43)" style="fill:#263238"></rect><path d="M148.31,95.36l-21.57,19L111.19,96.78c5.92-8.52,13-15,21.58-19Z" style="fill:#03AC13"></path><path d="M130.35,111.21c-.12.11-3.86-3.89-8.37-8.94s-8-9.22-7.93-9.32,3.86,3.89,8.37,8.94S130.47,111.11,130.35,111.21Z" style="fill:#263238"></path><path d="M134.46,107.58A24.38,24.38,0,0,1,132,104.9c-1.49-1.71-3.53-4.09-5.76-6.73l-5.68-6.8L118.8,89.3c-.4-.5-.61-.74-.61-.77.21-.21,4,4,8.45,9.26,2.23,2.65,4.21,5.07,5.63,6.84A22.53,22.53,0,0,1,134.46,107.58Z" style="fill:#263238"></path><path d="M139.94,102.75a24.05,24.05,0,0,1-2.53-2.72c-1.5-1.73-3.55-4.14-5.79-6.83l-5.69-6.91-1.7-2.12a5.33,5.33,0,0,1-.59-.8,16.08,16.08,0,0,1,2.6,2.65c1.53,1.72,3.59,4.12,5.83,6.81s4.24,5.14,5.66,6.94A23.78,23.78,0,0,1,139.94,102.75Z" style="fill:#263238"></path><path d="M144.93,98.23c-.12.1-3.85-4-8.31-9s-8-9.33-7.87-9.43,3.84,3.94,8.3,9S145.05,98.12,144.93,98.23Z" style="fill:#263238"></path><circle cx="258.38" cy="223.47" r="159.23" transform="translate(-82.34 248.16) rotate(-45)" style="fill:#03AC13"></circle><circle cx="258.38" cy="223.47" r="146.29" transform="translate(-82.34 248.16) rotate(-45)" style="fill:#fff"></circle><path d="M258.38,370.26c-80.94,0-146.79-65.85-146.79-146.79S177.44,76.68,258.38,76.68s146.79,65.85,146.79,146.79S339.32,370.26,258.38,370.26Zm0-292.58c-80.39,0-145.79,65.4-145.79,145.79S178,369.26,258.38,369.26s145.79-65.4,145.79-145.79S338.77,77.68,258.38,77.68Z" style="fill:#263238"></path><path d="M166.58,165.05c6.09-18.92,18.58-31.72,35.13-42.73s39.11-15.15,58.92-13.47v117.9Z" style="fill:#03AC13"></path><g style="opacity:0.8"><path d="M166.58,165.05c6.09-18.92,18.58-31.72,35.13-42.73s39.11-15.15,58.92-13.47v117.9Z" style="fill:#fff"></path></g><polygon points="247.97 226.11 182.16 174.99 259.23 210.52 261.49 224.02 247.97 226.11" style="fill:#03AC13"></polygon><g style="opacity:0.4"><polygon points="182.16 174.99 250.88 215.39 259.23 210.52 182.16 174.99"></polygon></g><circle cx="261.53" cy="224.25" r="13.69" transform="translate(-65.54 116.03) rotate(-22.3)" style="fill:#fafafa"></circle><path d="M261.53,210.55a30.55,30.55,0,0,0-3.31.56,13.58,13.58,0,0,0-9.87,10.66,13.48,13.48,0,0,0,.61,7,12.36,12.36,0,0,0,1.83,3.38,12.5,12.5,0,0,0,2.84,2.83,13.33,13.33,0,0,0,15.79,0,12.35,12.35,0,0,0,2.85-2.83,12.63,12.63,0,0,0,1.83-3.38,13.47,13.47,0,0,0,.6-7,13.29,13.29,0,0,0-2.48-5.67,13.61,13.61,0,0,0-7.38-5,31,31,0,0,0-3.31-.56,10.61,10.61,0,0,1,3.37.3,13.82,13.82,0,0,1,10.35,10.82,14,14,0,0,1-.57,7.35,14.11,14.11,0,0,1-4.86,6.52,14,14,0,0,1-16.58,0,13.28,13.28,0,0,1-3-3,13.09,13.09,0,0,1-1.89-3.55,14,14,0,0,1-.58-7.35,13.82,13.82,0,0,1,10.35-10.82A10.67,10.67,0,0,1,261.53,210.55Z" style="fill:#263238"></path><path d="M261.53,214.05a10.2,10.2,0,1,1-10.19,10.2A10.2,10.2,0,0,1,261.53,214.05Z" style="fill:#263238"></path><path d="M260.85,220.23s-2.8-88.17,1.28-106.77C262.13,113.46,269,166.91,260.85,220.23Z" style="fill:#263238"></path><path d="M252.88,358.71h-.17l.39-11h.31Zm54.89-8.92-4.1-10.2.3-.12,3.95,10.27ZM198.9,344.55l-.17-.09,4.9-9.85.27.14Zm155.5-25.3-7.84-7.71.21-.21,7.77,7.78Zm-199-9.57-.17-.21,8.53-7,.14.18Zm229.27-37.31-10.31-3.83.11-.29,10.27,3.95ZM129.79,260.12l-.08-.28L140.34,257l0,.18Zm252.42-42.28v-.17l11-.66,0,.31Zm0-.19v-.25l11-.66V217ZM137.43,206.08l-10.87-1.65,0-.25,10.88,1.66Zm231.31-37.86-.1-.2,9.77-5.06.12.23Zm-213.22-10-9.25-6,.12-.19,9.27,5.92ZM336.33,128.6l-.19-.15,6.87-8.59.19.15Zm-144.82-6.85-6-9.21.17-.1,6.1,9.15Zm99.08-16.24-.21-.05,2.76-10.65.27.07Zm-51.37-2.39-1.79-10.86.24,0,1.78,10.86Z" style="fill:#263238"></path></g><g id="freepik--Lines--inject-26"><path d="M436.8,353.7c0,.14-13.56.26-30.28.26s-30.29-.12-30.29-.26,13.56-.26,30.29-.26S436.8,353.55,436.8,353.7Z" style="fill:#263238"></path><path d="M455.86,346.91c0,.15-13.56.26-30.28.26s-30.29-.11-30.29-.26,13.55-.26,30.29-.26S455.86,346.77,455.86,346.91Z" style="fill:#263238"></path><path d="M91.16,308.82c0,.15-12.58.26-28.09.26S35,309,35,308.82s12.58-.26,28.1-.26S91.16,308.68,91.16,308.82Z" style="fill:#263238"></path><path d="M108.84,302c0,.14-12.58.26-28.09.26s-28.1-.12-28.1-.26,12.58-.26,28.1-.26S108.84,301.9,108.84,302Z" style="fill:#263238"></path></g></svg>