<svg xmlns="http://www.w3.org/2000/svg" viewBox="0 0 500 500"><g id="freepik--Floor--inject-3"><path id="freepik--floor--inject-3" d="M105.08,426.24c84,42.94,220.19,42.94,304.18,0s84-112.58,0-155.52-220.18-43-304.18,0S21.08,383.29,105.08,426.24Z" style="fill:#f5f5f5"></path></g><g id="freepik--Arrow--inject-3"><path d="M291.73,308.39V315a31.19,31.19,0,0,1-1.08,7.3l-16.11,52.67a3,3,0,0,1-1.1,1.62,2.86,2.86,0,0,1-3.24.09l-21.13-12.2-94.26,54.42a6.66,6.66,0,0,1-3.24.78,6.57,6.57,0,0,1-3.21-.76l-30.1-17.39a7.16,7.16,0,0,1-3.26-5.62V389.3a6.6,6.6,0,0,1,1-3.2,6.69,6.69,0,0,1,2.31-2.43l82.07-47.37-8.94-5.16a7.15,7.15,0,0,1-3.25-5.62V319a4.23,4.23,0,0,1,1.3-3h0a4,4,0,0,1,2.41-1.15L288,305a3.34,3.34,0,0,1,3.17,1.47A3.41,3.41,0,0,1,291.73,308.39Z" style="fill:#03AC13"></path><path d="M151.57,406.65v13a6.57,6.57,0,0,1-3.21-.76l-30.1-17.39a7.16,7.16,0,0,1-3.26-5.62V389.3a6.6,6.6,0,0,1,1-3.2Z" style="opacity:0.1"></path><path d="M212.51,329.27l-12.18,7-8.94-5.16a7.18,7.18,0,0,1-3.25-5.63V319a4.19,4.19,0,0,1,1.3-3h0Z" style="opacity:0.1"></path><path d="M273.44,364.45v12.1a2.84,2.84,0,0,1-3.24.09l-21.13-12.19V350.38Z" style="opacity:0.1"></path><path d="M249.07,350.38v14.07l-94.26,54.41a6.66,6.66,0,0,1-3.24.78v-13Z" style="opacity:0.2"></path><path d="M291.73,308.39V315a31.19,31.19,0,0,1-1.08,7.3l-16.11,52.67a3,3,0,0,1-1.1,1.62V364.44l17.72-58A3.41,3.41,0,0,1,291.73,308.39Z" style="opacity:0.2"></path></g><g id="freepik--Gears--inject-3"><path d="M374.89,108.37l-28.58-16.5a46.57,46.57,0,0,0-3.25-14.74A27.64,27.64,0,0,1,359.65,80l.63.37C368.49,85.11,373.88,94.76,374.89,108.37Z" style="fill:#03AC13"></path><path d="M374.89,108.37l-28.58-16.5a46.57,46.57,0,0,0-3.25-14.74A27.64,27.64,0,0,1,359.65,80l.63.37C368.49,85.11,373.88,94.76,374.89,108.37Z" style="opacity:0.30000000000000004"></path><path d="M370.71,112.64h0a1.43,1.43,0,0,0-.95.1l-10.7,4.82a1.27,1.27,0,0,1-1.78-.82c-.42-1.35-7.75-2.91-8.35-4.07L353,102.46Z" style="fill:#455a64"></path><path d="M353.05,102.49v0a1,1,0,0,0-.93,0l-7.9-18.28a1.63,1.63,0,0,0-.63-2.1l-7.74-4.46a1.61,1.61,0,0,0-2.13.49l-8.89,13.37a3,3,0,0,1-2.33,1.16,21.84,21.84,0,0,0-3.1.14V83l-5.94-3.43h0a1,1,0,0,0-1,.09l-12,6.94A3.27,3.27,0,0,0,299,88.87l-1.2,13.37a4.43,4.43,0,0,1-1.25,2.5,72.57,72.57,0,0,0-6.68,7.07,2.32,2.32,0,0,1-2.36.67l-7.71-2.7a1.89,1.89,0,0,0-2.17.81l-8.84,15.3a1.89,1.89,0,0,0,.39,2.28l6.19,5.34a2.29,2.29,0,0,1,.6,2.38,71,71,0,0,0-2.78,9.31,4.41,4.41,0,0,1-1.54,2.33l-11,7.73a3.25,3.25,0,0,0-1.23,2.37v13.88a1,1,0,0,0,.43.89h0l13.91,8-5.07,10.23a1.61,1.61,0,0,0,.63,2.09l18.92,11a1.61,1.61,0,0,0,2.13-.49l8.6-8.8a1,1,0,0,0,.46.83l17.62,10.17.47-13.8s-3.72-4.81-3.65-5.64l19.21-20.92a1.88,1.88,0,0,0,2.17-.8l8.84-15.3a1.89,1.89,0,0,0-.39-2.28l8.51-27.1a3.2,3.2,0,0,0,1.22-2.36Zm-46.57,58.39c-5.16,3-9.42,3.61-12.52,2.17-3.64-1.69,25.87-52.27,29-49.51,2.51,2.23,3.87,6.37,3.87,12.16C326.79,138.66,317.69,154.4,306.48,160.88Z" style="fill:#263238"></path><path d="M356,91l-2.39,4.83-7.68,8.86-9.05-5.23-12.68-7.33a2.11,2.11,0,0,0,.64-.62l8.89-13.36a1.62,1.62,0,0,1,2.11-.51l7.76,4.48,11.77,6.79A1.62,1.62,0,0,1,356,91Z" style="fill:#455a64"></path><path d="M272.49,146.68a3.48,3.48,0,0,1-.81.85l-11,7.73a3,3,0,0,0-.76.88l18.47,10.68L293,158.53Z" style="fill:#455a64"></path><path d="M279.1,109.7a1.88,1.88,0,0,0-1.44.89l-8.84,15.3a1.85,1.85,0,0,0-.2,1.18L288,138.27l12.1-16.37Z" style="fill:#455a64"></path><path d="M331.13,89.8v4.4l-10.7,6.18-21.2-12.25a3.2,3.2,0,0,1,1.24-1.5l12-6.94a1.24,1.24,0,0,1,.6-.18.75.75,0,0,1,.37.09l5.79,3.33.15.09,8,4.62Z" style="fill:#455a64"></path><path d="M371.15,127.43V113.55a.89.89,0,0,0-1.36-.88l-10.7,4.82a1.27,1.27,0,0,1-1.78-.83,24.5,24.5,0,0,0-2.39-5.3,3,3,0,0,1-.16-2.59l7.13-14.38a1.63,1.63,0,0,0-.63-2.1l-7.74-4.47a1.62,1.62,0,0,0-2.13.5l-8.89,13.37a2.93,2.93,0,0,1-2.33,1.15,24.51,24.51,0,0,0-5.78.59,1.27,1.27,0,0,1-1.61-1.13l-1.17-11.68a.9.9,0,0,0-1.45-.74l-12,6.94a3.23,3.23,0,0,0-1.43,2.24l-1.21,13.38a4.43,4.43,0,0,1-1.25,2.5,72.57,72.57,0,0,0-6.68,7.07,2.32,2.32,0,0,1-2.36.67L297.5,120a1.89,1.89,0,0,0-2.17.8l-8.84,15.31a1.89,1.89,0,0,0,.39,2.28l6.19,5.34a2.29,2.29,0,0,1,.6,2.38,71,71,0,0,0-2.78,9.31,4.41,4.41,0,0,1-1.54,2.33l-11,7.73a3.25,3.25,0,0,0-1.23,2.37v13.88a.9.9,0,0,0,1.37.88l10.7-4.82a1.27,1.27,0,0,1,1.78.82,23.9,23.9,0,0,0,2.39,5.31,3,3,0,0,1,.16,2.59l-7.13,14.38A1.61,1.61,0,0,0,287,203l7.74,4.47a1.61,1.61,0,0,0,2.13-.5l8.89-13.36a3,3,0,0,1,2.32-1.16,23.58,23.58,0,0,0,5.79-.59,1.28,1.28,0,0,1,1.61,1.13l1.17,11.68a.9.9,0,0,0,1.45.75l12-6.94a3.23,3.23,0,0,0,1.43-2.25l1.21-13.37a4.43,4.43,0,0,1,1.25-2.5,72.41,72.41,0,0,0,6.67-7.07,2.31,2.31,0,0,1,2.37-.67l7.71,2.7a1.9,1.9,0,0,0,2.17-.81l8.84-15.31a1.88,1.88,0,0,0-.39-2.27l-6.19-5.34a2.29,2.29,0,0,1-.6-2.38,73.85,73.85,0,0,0,2.78-9.32,4.49,4.49,0,0,1,1.54-2.33l11-7.73A3.2,3.2,0,0,0,371.15,127.43Zm-47,43.65c-11.22,6.47-20.31,1.22-20.31-11.73s9.09-28.7,20.31-35.17,20.31-1.23,20.31,11.72S335.36,164.6,324.15,171.08Z" style="fill:#37474f"></path><path d="M334.35,132.88,329,129.8h0l-.05,0h0c-2.37-1.34-5.63-1.14-9.23.94-7.24,4.18-13.12,14.36-13.12,22.73,0,4.17,1.47,7.11,3.83,8.48h0l4.86,2.78,1.16-1.94a13.51,13.51,0,0,0,3.76-1.47c7.25-4.18,13.12-14.36,13.13-22.73a13.76,13.76,0,0,0-.42-3.35Z" style="fill:#03AC13"></path><path d="M306.6,153.45c0,4.18,1.47,7.11,3.83,8.48h0l4.86,2.78,1.16-1.94a13.63,13.63,0,0,0,3.76-1.47A27.28,27.28,0,0,0,330,150.63l-19-11A27.29,27.29,0,0,0,306.6,153.45Z" style="opacity:0.1"></path><path d="M334.35,132.88,329,129.8h0l-.06,0h0c-2.37-1.34-5.63-1.14-9.23.94a26.1,26.1,0,0,0-8.75,8.93l19,11a26.23,26.23,0,0,0,3.36-12,13.76,13.76,0,0,0-.42-3.35Z" style="fill:#fff;opacity:0.4"></path><path d="M324.8,133.63c-7.25,4.18-13.12,14.36-13.12,22.73s5.87,11.76,13.12,7.57,13.12-14.36,13.12-22.73S332.05,129.44,324.8,133.63Z" style="fill:#03AC13"></path><path d="M327.81,139.64a.18.18,0,0,1,.25,0,.41.41,0,0,1,.1.32v2.12a1.29,1.29,0,0,1-.09.45,4,4,0,0,1-.17.4l-1.57,3.34a1.82,1.82,0,0,1,1.65.4,2.82,2.82,0,0,1,.64,2.14,7.69,7.69,0,0,1-1,4,7.6,7.6,0,0,1-2.83,2.77,4.3,4.3,0,0,1-1.65.62,2.07,2.07,0,0,1-1.22-.2,1.81,1.81,0,0,1-.76-.83,3.06,3.06,0,0,1-.28-1.29.8.8,0,0,1,.09-.36.45.45,0,0,1,.2-.24l1.64-.95c.18-.1.32-.12.41-.05l.32.23a.89.89,0,0,0,.45.14,1.46,1.46,0,0,0,.8-.27,3.24,3.24,0,0,0,1-.91,2,2,0,0,0,.41-1.26c0-.47-.13-.73-.41-.78a1.51,1.51,0,0,0-1,.27l-1.08.63a.18.18,0,0,1-.24,0,.43.43,0,0,1-.11-.32v-1.72a1.2,1.2,0,0,1,.09-.45c.06-.16.13-.3.19-.43l1.37-2.93-3.39,1.95a.18.18,0,0,1-.24,0,.44.44,0,0,1-.11-.32V144a1,1,0,0,1,.11-.44.66.66,0,0,1,.24-.31Z" style="fill:#37474f"></path><path d="M332.3,63.84l-.48-.28c-9.2-5.46-22-4.76-36.14,3.4-28,16.17-50.77,55.55-50.77,87.94s-22.74,71.79-50.78,88a49.59,49.59,0,0,1-18.75,6.69,27.68,27.68,0,0,0,10.8,13.32l.5.3c9.2,5.42,22,4.69,36.07-3.45,28-16.19,50.77-55.58,50.77-88S296.25,100,324.3,83.82a49.46,49.46,0,0,1,18.76-6.69A27.64,27.64,0,0,1,359.65,80Z" style="fill:#03AC13"></path><path d="M243.09,189.25l24.7-5.54-.05,0-10.56-6.11-9.8-5.67a1.37,1.37,0,0,0-.69-.2l-8.67-.49a1.41,1.41,0,0,1-1.46-1.41,46.69,46.69,0,0,0,0-8.36,4.16,4.16,0,0,1,1-2.56l13.87-1.13c.59-.72,11.94-11.67,11.94-11.67l-.06,0-20.38-11.81a.83.83,0,0,0-.39-.08c-5.87-3.39-16.16-9.35-16.4-9.5a1.64,1.64,0,0,0-1-.19l-10.11,1a2.82,2.82,0,0,0-2.21,1.54l-5.48,14.7a4.83,4.83,0,0,1-2.21,2.14c-1.07.5-2.14,1.07-3.22,1.69l-10.61-6.14c-.42-.28-1.09-.1-1.64.48l-11.1,11.72a2.93,2.93,0,0,0-.86,2.44l3.09,10.46a3.51,3.51,0,0,1-.57,2.52,84.6,84.6,0,0,0-5.1,8.87,4,4,0,0,1-2.41,1.79l-9.5,2.29a3.12,3.12,0,0,0-2.15,1.79l-4.78,16.09a1,1,0,0,0,.36,1.17c.21.17,10.76,6.24,10.76,6.24,0,1.47,0,2.91.18,4.31a4.12,4.12,0,0,1-.94,2.56l-9.69,11.72a2.64,2.64,0,0,0-.58,2.41l4.6,10.17a.73.73,0,0,0,.29.33l20.41,11.81s0,0,0,0h0a.23.23,0,0,0,.06-.09l.3.18h0l16.41,9.49,0,0c.28-.76,8.61-35.27,9-34.72l5.18,7.91a.93.93,0,0,0,.16.18l9.87,5.73,10.65,6.17v0l-7.7-24C232.4,221.75,247.91,192.5,243.09,189.25Zm-59.8,16.06,37.53-39.61a19.74,19.74,0,0,1,1.55,8.24,22.74,22.74,0,0,1,2.55-1.3q.12,1.31.12,2.76c0,13-9.09,28.7-20.31,35.18-.82.47-1.63.89-2.4,1.25a21.74,21.74,0,0,1-.16-2.94C194.16,213.57,186.55,212.5,183.29,205.31Z" style="fill:#263238"></path><path d="M181.65,248.59l-1-9.46-24.36-14.06a1.87,1.87,0,0,0,0,1.2l4.6,10.17a.73.73,0,0,0,.29.33h0l.05,0Z" style="fill:#455a64"></path><path d="M184.73,194.58l-23.37-13.44a1.82,1.82,0,0,0-.34.62l-4.78,16.1a1,1,0,0,0,.36,1.17l.17.11,10.53,6.09.06,0h0l9.79,5.67Z" style="fill:#455a64"></path><path d="M177.73,153l20.44,11.73,13.48-13.52L191.26,139.4h0c-.42-.27-1.08-.09-1.63.49l-11.11,11.72A3.56,3.56,0,0,0,177.73,153Z" style="fill:#455a64"></path><path d="M226.1,124.67a1.57,1.57,0,0,0-1-.19l-10.11,1a2.91,2.91,0,0,0-1.69.8l26.58,15.35,6.79-3.93-.19-1.23S226.43,124.88,226.1,124.67Z" style="fill:#455a64"></path><path d="M267.79,183.71l-.05,0a1.5,1.5,0,0,0-.63-.16l-8.67-.49a1.41,1.41,0,0,1-1.46-1.41c.12-1.37.19-2.73.2-4.05a40.59,40.59,0,0,0-.19-4.31,4.2,4.2,0,0,1,.95-2.56L267.62,159a2.65,2.65,0,0,0,.59-2.41l-4.6-10.17a.68.68,0,0,0-.28-.32l-.06,0a1.41,1.41,0,0,0-1.48.46L251.45,156a1.83,1.83,0,0,1-2.26.38,16.07,16.07,0,0,0-4.42-2.57,1.65,1.65,0,0,1-1-1.81l3.19-14.47a.9.9,0,0,0-.44-1,1.69,1.69,0,0,0-1-.17l-10.11,1a2.78,2.78,0,0,0-2.21,1.54l-5.48,14.7a4.72,4.72,0,0,1-2.21,2.13,45.63,45.63,0,0,0-6.26,3.63c-.85.57-1.8.61-2.17,0l-5.17-7.9c-.37-.56-1.2-.44-1.87.25l-11.1,11.73a2.92,2.92,0,0,0-.86,2.43l3.09,10.47a3.57,3.57,0,0,1-.56,2.52,84.55,84.55,0,0,0-5.11,8.86,4,4,0,0,1-2.41,1.8l-9.5,2.29a3.15,3.15,0,0,0-2.15,1.78l-4.78,16.1a1.14,1.14,0,0,0,1.18,1.45l8.68.49A1.41,1.41,0,0,1,188,213a45.81,45.81,0,0,0,0,8.36A4.08,4.08,0,0,1,187,224l-9.68,11.73a2.64,2.64,0,0,0-.59,2.41l4.6,10.16a.63.63,0,0,0,.28.32s0,0,0,0h0a.74.74,0,0,0,.36.09h0a1.79,1.79,0,0,0,1.13-.53l10.33-9.45a1.84,1.84,0,0,1,2.26-.38,16.37,16.37,0,0,0,4.42,2.57,1.64,1.64,0,0,1,1,1.81L198,257.18a.89.89,0,0,0,.42,1l0,0a1.57,1.57,0,0,0,1,.17l10.11-1a2.82,2.82,0,0,0,2.21-1.54l5.49-14.7a4.78,4.78,0,0,1,2.21-2.14c1.06-.5,2.14-1.07,3.21-1.69s2-1.24,3.05-1.93c.84-.58,1.8-.62,2.16-.06l5.18,7.91a.68.68,0,0,0,.25.23c.42.26,1.07.08,1.61-.49L246,231.22a2.94,2.94,0,0,0,.85-2.43l-3.09-10.46a3.56,3.56,0,0,1,.57-2.52,82.86,82.86,0,0,0,5.1-8.87,4,4,0,0,1,2.42-1.79l9.49-2.29a3.1,3.1,0,0,0,2.15-1.79L268.3,185A1.07,1.07,0,0,0,267.79,183.71ZM217.1,223l-.56.14-.4.09q-.45.09-.9.15c-.36.06-.7.08-1.05.11l-.64,0h-.31a10.15,10.15,0,0,1-9.52-6.41,17.44,17.44,0,0,1-1.39-5.3,21.74,21.74,0,0,1-.16-2.94c.06-9.17,4.77-20.53,12.54-28.74a34.84,34.84,0,0,1,7.66-6.21,22.74,22.74,0,0,1,2.55-1.3,16.13,16.13,0,0,1,7.17-1.52h.08l.36,0,.37,0a2.6,2.6,0,0,1,.39.05,10.14,10.14,0,0,1,8,6.28c4.29,9.49-.63,26-11,37C225.91,219.08,221.3,222,217.1,223Z" style="fill:#37474f"></path><line x1="242.88" y1="134.25" x2="263.32" y2="146.08" style="fill:#263238"></line><path d="M232.8,182.2l-5.34-3.08h0l0,0h0c-2.37-1.34-5.63-1.14-9.23.94-7.24,4.18-13.12,14.36-13.12,22.73,0,4.18,1.46,7.11,3.83,8.49h0l4.86,2.77,1.16-1.94a13.26,13.26,0,0,0,3.77-1.47c7.25-4.18,13.12-14.36,13.12-22.73a13.84,13.84,0,0,0-.41-3.35Z" style="fill:#03AC13"></path><path d="M205.05,202.77c0,4.18,1.46,7.11,3.83,8.49h0l4.87,2.77,1.16-1.94a13.63,13.63,0,0,0,3.76-1.47A27.25,27.25,0,0,0,228.45,200l-19-11A27.37,27.37,0,0,0,205.05,202.77Z" style="opacity:0.1"></path><path d="M232.8,182.2l-5.34-3.08h0l0,0h0c-2.37-1.34-5.62-1.14-9.22.94a26.21,26.21,0,0,0-8.76,8.93l19,11a26.3,26.3,0,0,0,3.36-12.06,13.82,13.82,0,0,0-.42-3.35Z" style="fill:#fff;opacity:0.4"></path><path d="M223.25,183c-7.25,4.18-13.13,14.36-13.13,22.73s5.88,11.76,13.13,7.58,13.12-14.36,13.12-22.73S230.5,178.76,223.25,183Z" style="fill:#03AC13"></path><path d="M226.79,192.89a7.67,7.67,0,0,1-.08,1.17,7.84,7.84,0,0,1-.26,1.2,12.51,12.51,0,0,1-.49,1.3c-.21.45-.46.92-.75,1.43l-1.82,3.17,3.26-1.89a.21.21,0,0,1,.25,0,.44.44,0,0,1,.1.32v2.12a1,1,0,0,1-.1.44.67.67,0,0,1-.25.31l-6.86,4a.21.21,0,0,1-.25,0,.44.44,0,0,1-.1-.32v-1.72a3.4,3.4,0,0,1,.08-.69,2.45,2.45,0,0,1,.3-.71l3.88-6.52a4.54,4.54,0,0,0,.57-1.28,3.85,3.85,0,0,0,.12-.9,3,3,0,0,0,0-.37.92.92,0,0,0-.15-.41.5.5,0,0,0-.33-.24.8.8,0,0,0-.58.15,1.89,1.89,0,0,0-.59.53,3.08,3.08,0,0,0-.35.63,2.53,2.53,0,0,0-.18.6l-.09.42a1,1,0,0,1-.52.76l-1.6.92a.15.15,0,0,1-.2,0,.35.35,0,0,1-.08-.27,8.54,8.54,0,0,1,.23-1.8,9.37,9.37,0,0,1,.67-1.9,8.46,8.46,0,0,1,1.12-1.74,5.63,5.63,0,0,1,1.58-1.33,3.09,3.09,0,0,1,1.51-.49,1.67,1.67,0,0,1,1.1.41,2.52,2.52,0,0,1,.67,1.11A5.52,5.52,0,0,1,226.79,192.89Z" style="fill:#37474f"></path><path d="M175.38,249.57A49.79,49.79,0,0,1,172,230.39c0-16-5.53-27.28-14.51-32.67l-.91-.53A27.49,27.49,0,0,0,140,194.36a49.93,49.93,0,0,1,3.4,19.17c0,16.11,5.61,27.45,14.71,32.8l28.11,16.56A27.68,27.68,0,0,1,175.38,249.57Z" style="fill:#03AC13"></path><path d="M175.38,249.57A49.79,49.79,0,0,1,172,230.39c0-16-5.53-27.28-14.51-32.67l-.91-.53A27.49,27.49,0,0,0,140,194.36a49.93,49.93,0,0,1,3.4,19.17c0,16.11,5.61,27.45,14.71,32.8l28.11,16.56A27.68,27.68,0,0,1,175.38,249.57Z" style="opacity:0.30000000000000004"></path><path d="M167.81,229.79h0a1.36,1.36,0,0,0-.95.09l-10.7,4.82a1.27,1.27,0,0,1-1.78-.82c-.42-1.35-7.75-2.9-8.35-4.06l4.11-10.22Z" style="fill:#455a64"></path><path d="M150.15,219.64v0a1,1,0,0,0-.93,0l-7.9-18.28a1.62,1.62,0,0,0-.63-2.09L133,194.77a1.62,1.62,0,0,0-2.13.5l-8.89,13.37a3,3,0,0,1-2.33,1.15,21.88,21.88,0,0,0-3.1.15v-9.78l-5.94-3.42h0a1,1,0,0,0-1,.09l-12,6.94A3.25,3.25,0,0,0,96.13,206l-1.2,13.38a4.43,4.43,0,0,1-1.25,2.49A73.73,73.73,0,0,0,87,229a2.3,2.3,0,0,1-2.36.67l-7.71-2.69a1.87,1.87,0,0,0-2.17.8L65.92,243a1.89,1.89,0,0,0,.39,2.28l6.19,5.33a2.29,2.29,0,0,1,.6,2.38,71.14,71.14,0,0,0-2.78,9.32,4.45,4.45,0,0,1-1.54,2.33l-11,7.73a3.23,3.23,0,0,0-1.23,2.36v13.88a1,1,0,0,0,.43.89h0l13.91,8-5.07,10.24a1.61,1.61,0,0,0,.63,2.09l18.92,11a1.62,1.62,0,0,0,2.13-.5l8.6-8.79a1,1,0,0,0,.46.82l17.62,10.17.47-13.8S111,304,111,303.14l19.21-20.92a1.9,1.9,0,0,0,2.17-.8l8.84-15.31a1.89,1.89,0,0,0-.39-2.28l8.51-27.09a3.27,3.27,0,0,0,1.22-2.36ZM103.58,278c-5.16,3-9.42,3.62-12.52,2.18-3.64-1.7,25.87-52.28,29-49.52,2.51,2.24,3.87,6.38,3.87,12.17C123.89,255.8,114.79,271.55,103.58,278Z" style="fill:#263238"></path><path d="M131.64,249.37l-5.34-3.08h0l0,0h0c-2.37-1.34-5.62-1.14-9.22.94-7.25,4.18-13.13,14.36-13.13,22.73,0,4.18,1.47,7.11,3.84,8.49h0l4.86,2.77,1.16-1.94a13.35,13.35,0,0,0,3.76-1.46c7.25-4.19,13.13-14.37,13.13-22.74a14.36,14.36,0,0,0-.41-3.35Z" style="fill:#03AC13"></path><path d="M103.9,269.94c0,4.18,1.46,7.11,3.82,8.49h0l4.86,2.77,1.16-1.94a13.39,13.39,0,0,0,3.76-1.47,27.25,27.25,0,0,0,9.77-10.67l-19-11A27.27,27.27,0,0,0,103.9,269.94Z" style="opacity:0.1"></path><path d="M131.64,249.37l-5.34-3.08h0l-.05,0h0c-2.37-1.34-5.62-1.14-9.22.94a26.12,26.12,0,0,0-8.76,8.93l19,11a26.3,26.3,0,0,0,3.36-12.06,14.36,14.36,0,0,0-.41-3.35Z" style="fill:#fff;opacity:0.4"></path><path d="M122.09,250.12c-7.25,4.19-13.12,14.36-13.12,22.73s5.87,11.76,13.12,7.58,13.13-14.36,13.13-22.73S129.34,245.94,122.09,250.12Z" style="fill:#03AC13"></path><path d="M118.26,264.8a.48.48,0,0,1-.07-.37,1.41,1.41,0,0,1,.14-.44l2.8-4.91c.06-.12.15-.26.25-.43a1,1,0,0,1,.34-.35l1.59-.92a.18.18,0,0,1,.24,0,.41.41,0,0,1,.11.32v12.92a1.06,1.06,0,0,1-.11.44.58.58,0,0,1-.24.3l-1.7,1a.18.18,0,0,1-.25,0,.4.4,0,0,1-.1-.31v-8.74L119.71,266a.54.54,0,0,1-.26.26.18.18,0,0,1-.23-.08Z" style="fill:#37474f"></path><path d="M153.09,208.12,150.7,213,143,221.81,134,216.58l-12.68-7.33a2.11,2.11,0,0,0,.64-.62l8.89-13.36a1.62,1.62,0,0,1,2.11-.51l7.76,4.48L152.46,206A1.62,1.62,0,0,1,153.09,208.12Z" style="fill:#455a64"></path><path d="M69.59,263.82a3.53,3.53,0,0,1-.81.86l-11,7.73a2.75,2.75,0,0,0-.76.88L75.51,284l14.58-8.29Z" style="fill:#455a64"></path><path d="M76.2,226.85a1.87,1.87,0,0,0-1.44.88L65.92,243a1.84,1.84,0,0,0-.2,1.18l19.35,11.19,12.1-16.36Z" style="fill:#455a64"></path><path d="M128.23,206.94v4.4l-10.7,6.18-21.2-12.25a3.2,3.2,0,0,1,1.24-1.5l12-6.94a1.24,1.24,0,0,1,.6-.18.75.75,0,0,1,.37.09l5.79,3.33.15.09,8,4.62Z" style="fill:#455a64"></path><path d="M168.25,244.57V230.69a.89.89,0,0,0-1.36-.88l-10.7,4.82a1.27,1.27,0,0,1-1.78-.82A24.37,24.37,0,0,0,152,228.5a3,3,0,0,1-.16-2.59L159,211.53a1.62,1.62,0,0,0-.63-2.09L150.62,205a1.61,1.61,0,0,0-2.13.5l-8.89,13.36a3,3,0,0,1-2.33,1.16,23.51,23.51,0,0,0-5.78.59,1.28,1.28,0,0,1-1.61-1.13l-1.17-11.68a.89.89,0,0,0-1.45-.74l-12,6.94a3.19,3.19,0,0,0-1.43,2.24l-1.21,13.37a4.43,4.43,0,0,1-1.25,2.5,73.73,73.73,0,0,0-6.68,7.07,2.3,2.3,0,0,1-2.36.67l-7.71-2.69a1.87,1.87,0,0,0-2.17.8l-8.84,15.31a1.88,1.88,0,0,0,.39,2.27l6.19,5.34a2.29,2.29,0,0,1,.6,2.38A70.69,70.69,0,0,0,88,272.55a4.45,4.45,0,0,1-1.54,2.33l-11,7.73A3.21,3.21,0,0,0,74.24,285v13.88a.9.9,0,0,0,1.37.89l10.7-4.83a1.27,1.27,0,0,1,1.78.83,24,24,0,0,0,2.39,5.3,3,3,0,0,1,.16,2.6L83.51,318a1.61,1.61,0,0,0,.63,2.09l7.74,4.47a1.62,1.62,0,0,0,2.13-.5l8.89-13.37a3,3,0,0,1,2.32-1.15A24.6,24.6,0,0,0,111,309a1.28,1.28,0,0,1,1.61,1.13l1.17,11.68a.9.9,0,0,0,1.45.74l12-6.94a3.21,3.21,0,0,0,1.43-2.24L129.9,300a4.46,4.46,0,0,1,1.25-2.5,71.17,71.17,0,0,0,6.67-7.06,2.29,2.29,0,0,1,2.37-.67l7.71,2.69a1.9,1.9,0,0,0,2.17-.8l8.84-15.31a1.89,1.89,0,0,0-.39-2.28l-6.19-5.33a2.3,2.3,0,0,1-.6-2.38,74.85,74.85,0,0,0,2.78-9.32,4.41,4.41,0,0,1,1.54-2.33l11-7.73A3.24,3.24,0,0,0,168.25,244.57Zm-47,43.65c-11.22,6.48-20.31,1.23-20.31-11.72s9.09-28.7,20.31-35.18,20.31-1.22,20.31,11.73S132.46,281.75,121.25,288.22Z" style="fill:#37474f"></path><path d="M156.55,197.19A27.49,27.49,0,0,0,140,194.36a49.5,49.5,0,0,0-18.77,6.69c-26.64,15.38-48.48,51.7-50.6,83.06L42,267.26c2.11-31.36,24-67.69,50.61-83.07,13.85-8,26.4-8.84,35.56-3.74l1.08.64Z" style="fill:#03AC13"></path></g></svg>